<?xml version="1.0" standalone="no"?>
<!DOCTYPE svg PUBLIC "-//W3C//DTD SVG 20010904//EN"
 "http://www.w3.org/TR/2001/REC-SVG-20010904/DTD/svg10.dtd">
<svg version="1.0" xmlns="http://www.w3.org/2000/svg"
 width="1280.000000pt" height="823.000000pt" viewBox="0 0 1280.000000 823.000000"
 preserveAspectRatio="xMidYMid meet">
<metadata>
Created by potrace 1.15, written by Peter Selinger 2001-2017
</metadata>
<g transform="translate(0.000000,823.000000) scale(0.100000,-0.100000)"
fill="#ffffff" stroke="none">
<path d="M6022 8155 c-74 -75 -90 -85 -277 -169 -128 -57 -182 -66 -427 -66
-246 0 -379 15 -552 61 -517 137 -521 138 -583 35 -20 -33 -52 -81 -72 -105
l-35 -44 23 -41 c81 -143 83 -150 92 -310 16 -262 -6 -358 -114 -501 -68 -90
-119 -135 -182 -160 -94 -38 -164 -86 -257 -174 -213 -201 -393 -574 -465
-961 -14 -75 -18 -146 -17 -330 l0 -235 53 -254 c91 -441 214 -812 422 -1271
316 -698 691 -1144 1141 -1354 306 -143 735 -236 1239 -267 359 -22 652 28
798 136 54 39 77 69 83 106 4 30 7 30 243 -21 343 -74 474 -93 625 -87 159 6
263 27 445 92 140 49 193 83 277 174 48 52 57 57 79 48 63 -24 218 -48 349
-54 309 -13 594 44 844 169 122 61 186 107 260 190 92 100 106 137 116 293 9
154 3 197 -35 258 -32 50 -49 56 -165 58 -124 2 -111 14 17 15 101 1 153 7
246 28 281 65 465 147 584 259 55 52 75 80 87 115 21 68 29 161 21 254 -7 79
-9 83 -52 129 -38 41 -51 48 -96 54 -424 55 -1183 289 -1724 531 -622 278
-1261 668 -1711 1043 -586 488 -1046 1136 -1079 1516 -9 110 6 153 85 249 37
44 80 98 95 118 l27 37 0 201 0 201 -47 20 c-37 16 -286 92 -288 88 0 0 -33
-34 -73 -74z m-573 -922 c13 -93 4 -134 -45 -209 -49 -73 -151 -167 -220 -202
-70 -35 -136 -103 -168 -173 -21 -44 -24 -47 -30 -27 -14 56 -2 203 35 403 23
124 59 246 74 251 9 3 268 30 321 33 20 1 23 -7 33 -76z m-965 -588 c20 -170
15 -193 -77 -405 -73 -167 -111 -349 -124 -592 -3 -66 -9 -114 -14 -106 -16
30 -32 245 -26 366 6 127 25 222 101 507 35 129 118 383 122 370 2 -5 10 -68
18 -140z"/>
</g>
</svg>
